<svg width="24" height="24" viewBox="0 0 24 24" fill="none" xmlns="http://www.w3.org/2000/svg">
<path d="M12 1C8.68629 1 6 3.68629 6 7V10H5C3.89543 10 3 10.8954 3 12V20C3 21.1046 3.89543 22 5 22H19C20.1046 22 21 21.1046 21 20V12C21 10.8954 20.1046 10 19 10H18V7C18 3.68629 15.3137 1 12 1ZM7.5 7C7.5 4.51472 9.51472 2.5 12 2.5C14.4853 2.5 16.5 4.51472 16.5 7V10H7.5V7ZM5 11.5H19C19.2761 11.5 19.5 11.7239 19.5 12V20C19.5 20.2761 19.2761 20.5 19 20.5H5C4.72386 20.5 4.5 20.2761 4.5 20V12C4.5 11.7239 4.72386 11.5 5 11.5ZM12 13C11.1716 13 10.5 13.6716 10.5 14.5C10.5 15.3284 11.1716 16 12 16C12.8284 16 13.5 15.3284 13.5 14.5C13.5 13.6716 12.8284 13 12 13Z" fill="currentColor"/>
</svg>